<?xml version="1.0" standalone="no"?>
<!DOCTYPE svg PUBLIC "-//W3C//DTD SVG 20010904//EN"
 "http://www.w3.org/TR/2001/REC-SVG-20010904/DTD/svg10.dtd">
<svg version="1.0" xmlns="http://www.w3.org/2000/svg"
 width="1080.000000pt" height="1080.000000pt" viewBox="0 0 1080.000000 1080.000000"
 preserveAspectRatio="xMidYMid meet">
<metadata>
Created by potrace 1.16, written by Peter Selinger 2001-2019
</metadata>
<g transform="translate(0.000000,1080.000000) scale(0.100000,-0.100000)"
fill="#d15219" stroke="none">
<path d="M0 5400 l0 -5400 5400 0 5400 0 0 5400 0 5400 -2390 0 c-1438 0
-2390 -4 -2390 -9 0 -5 -35 -12 -77 -16 -43 -4 -107 -11 -143 -17 -36 -5 -92
-14 -125 -18 -33 -5 -114 -21 -180 -35 -66 -14 -140 -30 -165 -35 -129 -26
-390 -106 -508 -156 -18 -8 -39 -14 -47 -14 -7 0 -26 -6 -42 -14 -15 -7 -50
-24 -78 -36 -27 -13 -57 -27 -65 -32 -8 -4 -22 -11 -30 -14 -53 -20 -225 -113
-334 -179 -237 -146 -539 -445 -652 -645 -35 -63 -281 -329 -364 -395 -14 -11
-48 -38 -75 -61 -28 -22 -72 -54 -98 -70 -27 -16 -61 -37 -75 -46 -52 -32
-134 -69 -249 -112 -49 -18 -162 -42 -243 -50 -52 -6 -144 3 -235 22 -108 23
-258 125 -321 217 -24 36 -58 121 -73 188 -14 61 -14 236 0 329 22 150 83 352
134 451 8 16 15 35 15 43 0 8 7 29 16 46 20 38 5 61 -24 35 -10 -9 -22 -17
-26 -17 -5 0 -25 -13 -45 -28 -33 -27 -73 -52 -169 -108 -42 -24 -251 -130
-297 -150 -82 -35 -135 -54 -152 -54 -10 0 -38 -8 -63 -16 -32 -12 -82 -17
-170 -18 -108 -1 -133 2 -186 22 -101 38 -207 146 -252 256 -13 31 -17 71 -16
166 0 128 1 132 56 270 24 60 119 207 162 251 9 9 16 23 16 32 0 16 -35 17
-420 17 l-420 0 0 -5400z m10248 630 c5 -56 -24 -203 -68 -355 -12 -38 -25
-83 -30 -100 -16 -56 -32 -100 -51 -137 -10 -20 -19 -46 -19 -56 0 -11 -7 -25
-15 -32 -8 -7 -15 -19 -15 -26 0 -16 -81 -174 -110 -214 -11 -16 -20 -32 -20
-37 0 -6 -9 -18 -20 -28 -11 -10 -20 -22 -20 -28 0 -11 -129 -176 -184 -236
-52 -54 -240 -211 -255 -211 -6 0 -11 -4 -11 -8 0 -5 -10 -14 -22 -21 -13 -6
-41 -22 -63 -35 -94 -56 -232 -118 -301 -136 -18 -4 -37 -11 -43 -14 -20 -13
-154 -48 -216 -57 -174 -26 -224 -30 -386 -30 -193 -1 -349 17 -484 57 -84 25
-154 48 -183 63 -30 15 -86 40 -112 51 -14 6 -38 19 -55 30 -16 11 -40 24 -53
30 -29 12 -155 109 -244 186 -62 54 -202 209 -238 264 -8 13 -25 35 -37 50
-13 15 -23 32 -23 38 0 6 -3 12 -8 14 -4 2 -27 37 -50 78 -24 41 -47 82 -52
90 -39 68 -111 224 -141 305 -12 33 -28 72 -35 87 -8 14 -14 34 -14 44 0 10
-9 41 -19 69 -27 71 -51 158 -51 186 -1 13 -7 41 -14 62 -12 33 -12 38 3 46 9
4 300 11 646 15 347 3 639 7 649 9 16 2 21 -9 32 -68 34 -196 71 -273 181
-382 45 -46 90 -83 99 -83 10 0 25 -6 33 -13 42 -35 261 -51 379 -27 178 37
333 182 415 390 20 49 47 144 47 162 0 37 21 39 461 47 239 4 497 8 574 7
l140 -1 3 -45z m-8607 15 c3 -2 11 -30 18 -62 35 -156 96 -274 193 -373 113
-116 214 -159 390 -167 90 -4 118 -2 185 18 43 12 84 27 92 33 16 13 50 32 76
45 26 12 55 44 98 107 60 91 98 193 112 308 4 27 9 55 12 63 5 14 85 15 657 8
358 -4 656 -11 662 -16 13 -10 -16 -166 -41 -227 -8 -19 -15 -44 -15 -56 0
-12 -7 -31 -15 -42 -8 -10 -15 -28 -15 -39 0 -21 -33 -111 -56 -157 -8 -14
-14 -31 -14 -37 0 -10 -62 -149 -81 -181 -5 -8 -14 -26 -19 -39 -6 -13 -24
-44 -40 -68 -17 -24 -30 -47 -30 -51 0 -4 -27 -46 -60 -92 -33 -47 -72 -103
-87 -125 -30 -44 -264 -281 -302 -305 -13 -8 -42 -29 -65 -45 -70 -52 -129
-89 -166 -105 -14 -6 -51 -24 -83 -40 -31 -17 -65 -30 -75 -30 -10 0 -22 -4
-27 -9 -11 -10 -147 -53 -220 -70 -89 -20 -287 -41 -395 -41 -107 0 -329 22
-410 39 -199 44 -282 73 -440 150 -158 78 -277 162 -400 283 -83 81 -240 266
-240 281 0 3 -14 27 -31 52 -38 57 -178 335 -179 355 0 8 -7 24 -15 34 -8 11
-15 28 -15 38 0 9 -6 32 -14 50 -20 47 -48 136 -57 177 -55 260 -67 326 -62
338 5 13 80 14 587 8 319 -4 583 -8 587 -10z m3834 -767 c79 -12 205 -46 219
-59 6 -5 16 -9 24 -9 12 0 91 -36 137 -63 85 -51 211 -155 276 -229 78 -90
189 -254 189 -279 0 -9 7 -22 15 -29 18 -15 20 -36 3 -42 -21 -6 -1801 12
-1957 20 -175 9 -178 10 -136 103 15 35 41 83 56 107 16 24 29 45 29 48 0 18
122 152 178 197 102 82 251 166 293 167 8 0 23 7 33 15 11 8 32 15 47 15 14 0
44 6 65 14 37 12 176 33 274 40 60 4 169 -2 255 -16z m533 -874 c26 -7 27 -11
6 -55 -58 -126 -236 -316 -335 -359 -13 -5 -31 -14 -39 -18 -45 -26 -70 -36
-144 -59 -70 -22 -101 -26 -226 -27 -161 -1 -168 1 -363 106 -51 28 -171 134
-279 247 -110 116 -133 145 -123 161 7 11 1461 15 1503 4z m-198 -564 c0 -5
23 -47 50 -95 28 -48 50 -91 50 -97 0 -5 6 -22 14 -36 14 -25 42 -87 71 -157
34 -83 85 -237 85 -259 0 -8 9 -44 19 -78 39 -127 55 -255 54 -428 0 -137 -4
-178 -21 -240 -56 -196 -158 -303 -302 -317 -69 -7 -138 20 -222 85 -56 43
-176 184 -190 223 -12 30 -44 23 -67 -16 -22 -38 -54 -55 -104 -55 -39 0 -176
38 -202 56 -11 8 -26 14 -35 14 -26 0 -108 82 -136 135 -58 112 -68 364 -22
560 5 22 13 61 18 88 9 48 17 75 51 178 11 31 19 65 19 76 0 10 7 28 15 39 8
10 15 28 15 39 0 12 9 38 20 60 11 22 20 47 20 56 0 9 8 27 19 40 16 20 21 21
47 11 52 -20 182 -42 252 -42 134 0 295 56 405 142 43 33 77 41 77 18z"/>
</g>
</svg>
